<?xml version="1.0" encoding="UTF-8" standalone="no"?><svg width="32" height="32" viewBox="0 0 32 32" fill="none" xmlns="http://www.w3.org/2000/svg">
<path fill-rule="evenodd" clip-rule="evenodd" d="M14.071 26.08C18.8422 26.08 22.711 22.2112 22.711 17.44H22.711V12.064H27.511V30.88H27.511V30.88H22.711V27.7347C20.2918 29.7689 17.2317 30.8828 14.071 30.8797C13.6644 30.8797 13.2627 30.8619 12.8659 30.8262C10.7534 30.6397 8.71581 29.9528 6.92154 28.8224C3.14234 26.4438 0.630981 22.2352 0.630981 17.44C0.630981 10.6681 5.63834 5.06751 12.151 4.13631C12.3373 4.11034 15.1139 4.08769 17.4358 4.06875C19.0626 4.05549 20.4661 4.04404 20.599 4.03455V8.85375C20.4782 8.86743 19.041 8.88349 17.3921 8.90191C15.1095 8.9274 12.4213 8.95743 12.2585 8.99199L12.151 9.01503C8.3033 9.88799 5.43098 13.3293 5.43098 17.44C5.42984 18.5749 5.65255 19.6989 6.08635 20.7477C6.52014 21.7965 7.15652 22.7494 7.95904 23.5519C8.76157 24.3544 9.71449 24.9908 10.7633 25.4246C11.812 25.8584 12.936 26.0811 14.071 26.08Z" fill="#32E0C4"/>
<path d="M27.5109 4.95999H22.7109V9.75999H27.5109V4.95999Z" fill="#32E0C4"/>
<path d="M31.3509 1.12H28.2789V4.192H31.3509V1.12Z" fill="#32E0C4"/>
<path d="M5.43098 17.44C5.4308 17.9189 5.47019 18.397 5.54874 18.8694C5.68293 19.6771 5.93229 20.4613 6.28922 21.1981C6.28922 21.1981 6.72858 29.6448 15.9999 30.7424C15.3611 30.8343 14.7164 30.8803 14.071 30.88C13.6656 30.88 13.2639 30.8622 12.8659 30.8265C10.7534 30.64 8.71581 29.9531 6.92154 28.8227C3.14234 26.4438 0.630981 22.2352 0.630981 17.44C0.630981 10.6681 5.63834 5.06751 12.151 4.13631C12.4678 4.09215 20.2764 4.05759 20.599 4.03455V8.85375C20.311 8.88575 12.5388 8.93247 12.2585 8.99199L12.151 9.01503C8.3033 9.88799 5.43098 13.3293 5.43098 17.44Z" fill="#222831"/>
</svg>
