<?xml version="1.0" encoding="UTF-8" standalone="no"?><svg width="32" height="32" viewBox="0 0 32 32" fill="none" xmlns="http://www.w3.org/2000/svg">
<path d="M22.711 17.44C22.711 22.2112 18.8422 26.08 14.071 26.08C12.936 26.0811 11.812 25.8584 10.7633 25.4246C9.71449 24.9908 8.76157 24.3544 7.95904 23.5519C7.15652 22.7494 6.52014 21.7965 6.08635 20.7477C5.65255 19.6989 5.42984 18.5749 5.43098 17.44C5.43098 13.3293 8.3033 9.88799 12.151 9.01503L12.2585 8.99199C12.5388 8.93247 20.311 8.88639 20.599 8.85375V4.03455C20.2764 4.05759 12.4678 4.09215 12.151 4.13631C5.63834 5.06751 0.630981 10.6681 0.630981 17.44C0.630981 22.2352 3.14234 26.4438 6.92154 28.8224C8.71581 29.9528 10.7534 30.6396 12.8659 30.8262C13.2627 30.8619 13.6644 30.8797 14.071 30.8797C17.2317 30.8828 20.2918 29.7689 22.711 27.7347V30.88H27.511V17.44H22.711Z" fill="#222831"/>
<path d="M27.5109 12.064H22.7109V30.88H27.5109V12.064Z" fill="#222831"/>
<path d="M27.5109 4.96002H22.7109V9.76002H27.5109V4.96002Z" fill="#222831"/>
<path d="M31.3509 1.12H28.2789V4.192H31.3509V1.12Z" fill="#222831"/>
<path d="M5.43098 17.44C5.4308 17.9189 5.47019 18.397 5.54874 18.8694C5.68293 19.6771 5.93229 20.4613 6.28922 21.1981C6.28922 21.1981 6.72858 29.6448 15.9999 30.7424C15.3611 30.8343 14.7164 30.8803 14.071 30.88C13.6656 30.88 13.2639 30.8622 12.8659 30.8265C10.7534 30.64 8.71581 29.9531 6.92154 28.8227C3.14234 26.4438 0.630981 22.2352 0.630981 17.44C0.630981 10.6681 5.63834 5.06751 12.151 4.13631C12.4678 4.09215 20.2764 4.05759 20.599 4.03455V8.85375C20.311 8.88575 12.5388 8.93247 12.2585 8.99199L12.151 9.01503C8.3033 9.88799 5.43098 13.3293 5.43098 17.44Z" fill="#32E0C4"/>
</svg>
