<?xml version="1.0" encoding="UTF-8" standalone="no"?><svg width="161" height="59" viewBox="0 0 161 59" fill="none" xmlns="http://www.w3.org/2000/svg">
<path d="M30.1856 23.4392C30.1856 29.7807 25.0435 34.9228 18.702 34.9228C17.1936 34.9243 15.6996 34.6283 14.3057 34.0517C12.9118 33.4752 11.6452 32.6293 10.5786 31.5627C9.51193 30.4961 8.66611 29.2295 8.08955 27.8356C7.51298 26.4417 7.21698 24.9477 7.21849 23.4392C7.21849 17.9756 11.0361 13.4018 16.1501 12.2415L16.293 12.2109C16.6656 12.1318 26.9957 12.0705 27.3785 12.0271V5.62188C26.9498 5.65251 16.5712 5.69844 16.1501 5.75713C7.4941 6.9948 0.838745 14.4387 0.838745 23.4392C0.838745 29.8126 4.17663 35.4064 9.19962 38.5677C11.5844 40.0701 14.2926 40.9831 17.1003 41.2311C17.6277 41.2784 18.1616 41.3021 18.702 41.3021C22.903 41.3062 26.9703 39.8257 30.1856 37.1221V41.3025H36.5653V23.4392H30.1856Z" fill="#EEEEEE"/>
<path d="M36.5653 16.2939H30.1855V41.3025H36.5653V16.2939Z" fill="#EEEEEE"/>
<path d="M36.5653 6.8519H30.1855V13.2316H36.5653V6.8519Z" fill="#EEEEEE"/>
<path d="M41.6691 1.7481H37.5861V5.83114H41.6691V1.7481Z" fill="#EEEEEE"/>
<path d="M7.21849 23.4392C7.21826 24.0758 7.2706 24.7112 7.37501 25.3391C7.55335 26.4126 7.88479 27.4549 8.35919 28.4342C8.35919 28.4342 8.94315 39.6608 21.2658 41.1196C20.4167 41.2418 19.5599 41.3029 18.702 41.3025C18.1633 41.3025 17.6294 41.2789 17.1003 41.2315C14.2926 40.9835 11.5844 40.0706 9.19962 38.5682C4.17663 35.4064 0.838745 29.8126 0.838745 23.4392C0.838745 14.4387 7.4941 6.9948 16.1501 5.75713C16.5712 5.69844 26.9498 5.65251 27.3785 5.62188V12.0271C26.9957 12.0697 16.6656 12.1318 16.293 12.2109L16.1501 12.2415C11.0361 13.4018 7.21849 17.9756 7.21849 23.4392Z" fill="#EEEEEE"/>
<path d="M56.0245 36.7912H44.1099V19.7738H47.5158V33.3853H56.0245V36.7912ZM73.1155 36.7912H61.4501V19.7738H73.1155V23.1796H64.856V26.5855H70.4454V29.9913H64.856V33.3853H73.1155V36.7912ZM86.2903 36.7912H82.8963V23.1796H77.7816V19.7738H91.3932V23.1796H86.2903V36.7912ZM100.248 36.7912H96.8425V19.7738H100.248V26.5855H107.048V19.7738H110.454V36.7912H107.048V29.9913H100.248V36.7912ZM128.934 36.7912H117.268V19.7738H128.934V23.1796H120.674V26.5855H126.263V29.9913H120.674V33.3853H128.934V36.7912ZM138.37 36.7912H134.964V19.7738H138.37V36.7912ZM155.2 29.9913V26.5855C155.2 26.1187 155.109 25.6796 154.927 25.2682C154.753 24.8489 154.512 24.485 154.203 24.1765C153.895 23.8679 153.531 23.6266 153.112 23.4526C152.7 23.2706 152.261 23.1796 151.794 23.1796C151.328 23.1796 150.884 23.2706 150.465 23.4526C150.054 23.6266 149.694 23.8679 149.385 24.1765C149.077 24.485 148.831 24.8489 148.65 25.2682C148.475 25.6796 148.388 26.1187 148.388 26.5855V29.9913H155.2ZM158.606 36.7912H155.2V33.3853H148.388V36.7912H144.994V26.5855C144.994 25.644 145.172 24.7619 145.528 23.9391C145.884 23.1084 146.367 22.3845 146.976 21.7674C147.593 21.1503 148.313 20.6638 149.136 20.3078C149.967 19.9518 150.853 19.7738 151.794 19.7738C152.736 19.7738 153.618 19.9518 154.441 20.3078C155.271 20.6638 155.995 21.1503 156.612 21.7674C157.229 22.3845 157.716 23.1084 158.072 23.9391C158.428 24.7619 158.606 25.644 158.606 26.5855V36.7912Z" fill="#EEEEEE"/>
<path d="M4.08865 54.7405H1.81808V43.3956H4.08865V54.7405ZM20.4602 54.7405H18.0314L13.6564 47.2722V54.7405H11.3858V43.3956H13.8146L18.1896 50.8719V43.3956H20.4602V54.7405ZM36.8317 54.7405H34.4029L30.0279 47.2722V54.7405H27.7573V43.3956H30.1861L34.5611 50.8719V43.3956H36.8317V54.7405ZM55.2444 49.1155C55.2444 49.6535 55.1731 50.173 55.0307 50.6741C54.8936 51.1699 54.6985 51.6366 54.4453 52.0744C54.1921 52.5069 53.8862 52.9025 53.5276 53.2611C53.1689 53.6198 52.7734 53.9283 52.3409 54.1867C51.9084 54.4399 51.4416 54.6351 50.9406 54.7722C50.4395 54.9146 49.92 54.9858 49.382 54.9858C48.844 54.9858 48.3245 54.9146 47.8235 54.7722C47.3277 54.6351 46.8609 54.4399 46.4231 54.1867C45.9907 53.9283 45.5951 53.6198 45.2364 53.2611C44.8778 52.9025 44.5692 52.5069 44.3108 52.0744C44.0576 51.6366 43.8599 51.1699 43.7175 50.6741C43.5803 50.173 43.5118 49.6535 43.5118 49.1155C43.5118 48.5776 43.5803 48.058 43.7175 47.557C43.8599 47.0559 44.0576 46.5892 44.3108 46.1567C44.5692 45.7242 44.8778 45.3286 45.2364 44.97C45.5951 44.6113 45.9907 44.3054 46.4231 44.0522C46.8609 43.7991 47.3277 43.6039 47.8235 43.4668C48.3245 43.3244 48.844 43.2532 49.382 43.2532C49.92 43.2532 50.4395 43.3244 50.9406 43.4668C51.4416 43.6039 51.9084 43.7991 52.3409 44.0522C52.7734 44.3054 53.1689 44.6113 53.5276 44.97C53.8862 45.3286 54.1921 45.7242 54.4453 46.1567C54.6985 46.5892 54.8936 47.0559 55.0307 47.557C55.1731 48.058 55.2444 48.5776 55.2444 49.1155ZM52.9896 49.1155C52.9896 48.6198 52.8947 48.153 52.7048 47.7152C52.5149 47.2722 52.2565 46.8898 51.9295 46.5681C51.6077 46.2411 51.2254 45.9826 50.7823 45.7928C50.3446 45.6029 49.8778 45.5079 49.382 45.5079C48.881 45.5079 48.4115 45.6029 47.9738 45.7928C47.536 45.9826 47.1536 46.2411 46.8266 46.5681C46.4996 46.8898 46.2412 47.2722 46.0513 47.7152C45.8614 48.153 45.7665 48.6198 45.7665 49.1155C45.7665 49.6113 45.8614 50.0781 46.0513 50.5159C46.2412 50.9483 46.4996 51.3281 46.8266 51.6551C47.1536 51.9821 47.536 52.2405 47.9738 52.4304C48.4115 52.6203 48.881 52.7152 49.382 52.7152C49.8778 52.7152 50.3446 52.6203 50.7823 52.4304C51.2254 52.2405 51.6077 51.9821 51.9295 51.6551C52.2565 51.3281 52.5149 50.9483 52.7048 50.5159C52.8947 50.0781 52.9896 49.6113 52.9896 49.1155ZM70.3896 43.3956L66.6633 54.7405H64.3928L60.6823 43.3956H63.2614L65.5241 50.9668L67.7947 43.3956H70.3896ZM83.0902 50.2073V47.9367C83.0902 47.6256 83.0296 47.3328 82.9083 47.0586C82.7922 46.779 82.6314 46.5364 82.4257 46.3307C82.22 46.125 81.9774 45.9642 81.6978 45.8481C81.4236 45.7268 81.1309 45.6662 80.8197 45.6662C80.5085 45.6662 80.2131 45.7268 79.9336 45.8481C79.6593 45.9642 79.4194 46.125 79.2137 46.3307C79.008 46.5364 78.8445 46.779 78.7232 47.0586C78.6071 47.3328 78.5491 47.6256 78.5491 47.9367V50.2073H83.0902ZM85.3608 54.7405H83.0902V52.47H78.5491V54.7405H76.2864V47.9367C76.2864 47.3091 76.4051 46.721 76.6425 46.1725C76.8798 45.6187 77.2015 45.1361 77.6076 44.7247C78.019 44.3133 78.499 43.989 79.0475 43.7516C79.6013 43.5143 80.192 43.3956 80.8197 43.3956C81.4473 43.3956 82.0354 43.5143 82.5839 43.7516C83.1377 43.989 83.6203 44.3133 84.0317 44.7247C84.4431 45.1361 84.7675 45.6187 85.0048 46.1725C85.2421 46.721 85.3608 47.3091 85.3608 47.9367V54.7405ZM96.9301 54.7405H94.6674V45.6662H91.2576V43.3956H100.332V45.6662H96.9301V54.7405ZM108.99 54.7405H106.719V43.3956H108.99V54.7405ZM127.403 49.1155C127.403 49.6535 127.331 50.173 127.189 50.6741C127.052 51.1699 126.857 51.6366 126.604 52.0744C126.35 52.5069 126.044 52.9025 125.686 53.2611C125.327 53.6198 124.932 53.9283 124.499 54.1867C124.067 54.4399 123.6 54.6351 123.099 54.7722C122.598 54.9146 122.078 54.9858 121.54 54.9858C121.002 54.9858 120.483 54.9146 119.982 54.7722C119.486 54.6351 119.019 54.4399 118.581 54.1867C118.149 53.9283 117.753 53.6198 117.395 53.2611C117.036 52.9025 116.727 52.5069 116.469 52.0744C116.216 51.6366 116.018 51.1699 115.876 50.6741C115.739 50.173 115.67 49.6535 115.67 49.1155C115.67 48.5776 115.739 48.058 115.876 47.557C116.018 47.0559 116.216 46.5892 116.469 46.1567C116.727 45.7242 117.036 45.3286 117.395 44.97C117.753 44.6113 118.149 44.3054 118.581 44.0522C119.019 43.7991 119.486 43.6039 119.982 43.4668C120.483 43.3244 121.002 43.2532 121.54 43.2532C122.078 43.2532 122.598 43.3244 123.099 43.4668C123.6 43.6039 124.067 43.7991 124.499 44.0522C124.932 44.3054 125.327 44.6113 125.686 44.97C126.044 45.3286 126.35 45.7242 126.604 46.1567C126.857 46.5892 127.052 47.0559 127.189 47.557C127.331 48.058 127.403 48.5776 127.403 49.1155ZM125.148 49.1155C125.148 48.6198 125.053 48.153 124.863 47.7152C124.673 47.2722 124.415 46.8898 124.088 46.5681C123.766 46.2411 123.384 45.9826 122.941 45.7928C122.503 45.6029 122.036 45.5079 121.54 45.5079C121.039 45.5079 120.57 45.6029 120.132 45.7928C119.694 45.9826 119.312 46.2411 118.985 46.5681C118.658 46.8898 118.399 47.2722 118.21 47.7152C118.02 48.153 117.925 48.6198 117.925 49.1155C117.925 49.6113 118.02 50.0781 118.21 50.5159C118.399 50.9483 118.658 51.3281 118.985 51.6551C119.312 51.9821 119.694 52.2405 120.132 52.4304C120.57 52.6203 121.039 52.7152 121.54 52.7152C122.036 52.7152 122.503 52.6203 122.941 52.4304C123.384 52.2405 123.766 51.9821 124.088 51.6551C124.415 51.3281 124.673 50.9483 124.863 50.5159C125.053 50.0781 125.148 49.6113 125.148 49.1155ZM143.157 54.7405H140.728L136.353 47.2722V54.7405H134.083V43.3956H136.511L140.886 50.8719V43.3956H143.157V54.7405ZM149.79 46.7975C149.79 46.3281 149.879 45.8877 150.059 45.4763C150.238 45.0649 150.481 44.7063 150.786 44.4003C151.098 44.0892 151.459 43.8439 151.87 43.6646C152.282 43.4853 152.722 43.3956 153.192 43.3956H158.397V45.6662H153.192C153.033 45.6662 152.886 45.6952 152.748 45.7532C152.611 45.8112 152.49 45.893 152.385 45.9984C152.284 46.0987 152.205 46.2173 152.147 46.3545C152.089 46.4916 152.06 46.6393 152.06 46.7975C152.06 46.9557 152.089 47.106 152.147 47.2484C152.205 47.3856 152.284 47.5069 152.385 47.6124C152.49 47.7126 152.611 47.7917 152.748 47.8497C152.886 47.9077 153.033 47.9367 153.192 47.9367H155.462C155.931 47.9367 156.372 48.0264 156.783 48.2057C157.2 48.3798 157.561 48.6224 157.867 48.9336C158.178 49.2395 158.421 49.6008 158.595 50.0174C158.774 50.4288 158.864 50.8692 158.864 51.3386C158.864 51.808 158.774 52.2484 158.595 52.6598C158.421 53.0712 158.178 53.4325 157.867 53.7437C157.561 54.0496 157.2 54.2922 156.783 54.4715C156.372 54.6509 155.931 54.7405 155.462 54.7405H150.423V52.47H155.462C155.62 52.47 155.768 52.441 155.905 52.3829C156.042 52.3249 156.161 52.2458 156.261 52.1456C156.367 52.0401 156.448 51.9188 156.506 51.7817C156.564 51.6445 156.593 51.4969 156.593 51.3386C156.593 51.1804 156.564 51.0327 156.506 50.8956C156.448 50.7585 156.367 50.6398 156.261 50.5396C156.161 50.4341 156.042 50.3524 155.905 50.2943C155.768 50.2363 155.62 50.2073 155.462 50.2073H153.192C152.722 50.2073 152.282 50.1176 151.87 49.9383C151.459 49.759 151.098 49.5164 150.786 49.2105C150.481 48.8993 150.238 48.538 150.059 48.1266C149.879 47.7099 149.79 47.2669 149.79 46.7975Z" fill="#EEEEEE"/>
</svg>
